ffmpeg started on 2016-11-25 at 15:49:29
Report written to "Output/NVENCh264/results/ffmpeg/sintelbd1500k.log"
Command line:
Tools/ffmpeg/ffmpeg -benchmark -y -i Input/y4m/sintel.y4m -c:v h264_nvenc -preset bd -b:v 1500k -an Output/NVENCh264/encoded/sintelbd1500k.mkv
ffmpeg version N-82227-gdb23fde Copyright (c) 2000-2016 the FFmpeg developers
  built with gcc 5.4.0 (Ubuntu 5.4.0-6ubuntu1~16.04.2) 20160609
  configuration: --prefix=/home/jaroslav/ffmpeg_build --pkg-config-flags=--static --extra-cflags=-I/home/jaroslav/ffmpeg_build/include --extra-ldflags=-L/home/jaroslav/ffmpeg_build/lib --bindir=/home/jaroslav/bin --enable-gpl --enable-libass --enable-libfdk-aac --enable-libfreetype --enable-libmp3lame --enable-libopus --enable-libtheora --enable-libvorbis --enable-libvpx --enable-libx264 --enable-libx265 --enable-nvenc --enable-libmfx --enable-libxvid --enable-libgsm --enable-libopencore-amrnb --enable-version3 --enable-nonfree
  libavutil      55. 35.100 / 55. 35.100
  libavcodec     57. 66.101 / 57. 66.101
  libavformat    57. 57.100 / 57. 57.100
  libavdevice    57.  2.100 / 57.  2.100
  libavfilter     6. 66.100 /  6. 66.100
  libswscale      4.  3.100 /  4.  3.100
  libswresample   2.  4.100 /  2.  4.100
  libpostproc    54.  2.100 / 54.  2.100
Input #0, yuv4mpegpipe, from 'Input/y4m/sintel.y4m':
  Duration: 00:00:20.83, start: 0.000000, bitrate: 2057307 kb/s
    Stream #0:0: Video: rawvideo (I420 / 0x30323449), yuv420p(progressive), 4096x1744, SAR 1:1 DAR 256:109, 24 fps, 24 tbr, 24 tbn, 24 tbc
Output #0, matroska, to 'Output/NVENCh264/encoded/sintelbd1500k.mkv':
  Metadata:
    encoder         : Lavf57.57.100
    Stream #0:0: Video: h264 (h264_nvenc) (Main) (H264 / 0x34363248), yuv420p, 4096x1744 [SAR 1:1 DAR 256:109], q=-1--1, 1500 kb/s, 24 fps, 1k tbn, 24 tbc
    Metadata:
      encoder         : Lavc57.66.101 h264_nvenc
    Side data:
      cpb: bitrate max/min/avg: 0/0/1500000 buffer size: 3000000 vbv_delay: -1
Stream mapping:
  Stream #0:0 -> #0:0 (rawvideo (native) -> h264 (h264_nvenc))
Press [q] to stop, [?] for help
frame=   16 fps=0.0 q=0.0 size=       0kB time=00:00:00.00 bitrate=N/A speed=   0x    frame=   36 fps= 35 q=48.0 size=       1kB time=00:00:00.20 bitrate=  28.6kbits/s speed=0.205x    frame=   57 fps= 37 q=49.0 size=       1kB time=00:00:01.08 bitrate=   5.5kbits/s speed=0.705x    frame=   78 fps= 38 q=49.0 size=       1kB time=00:00:01.95 bitrate=   3.1kbits/s speed=0.958x    frame=   99 fps= 39 q=49.0 size=       1kB time=00:00:02.83 bitrate=   2.1kbits/s speed=1.11x    frame=  120 fps= 39 q=49.0 size=       1kB time=00:00:03.70 bitrate=   1.6kbits/s speed=1.21x    frame=  141 fps= 39 q=49.0 size=       1kB time=00:00:04.58 bitrate=   1.3kbits/s speed=1.28x    frame=  162 fps= 40 q=49.0 size=    1308kB time=00:00:05.45 bitrate=1962.9kbits/s speed=1.33x    frame=  165 fps= 21 q=49.0 size=    1308kB time=00:00:05.58 bitrate=1919.0kbits/s speed=0.715x    frame=  166 fps= 15 q=49.0 size=    1308kB time=00:00:05.62 bitrate=1904.7kbits/s speed=0.505x    frame=  167 fps= 13 q=49.0 size=    1308kB time=00:00:05.66 bitrate=1890.5kbits/s speed=0.456x    frame=  188 fps= 15 q=49.0 size=    1308kB time=00:00:06.54 bitrate=1637.7kbits/s speed=0.506x    frame=  209 fps= 16 q=49.0 size=    1308kB time=00:00:07.41 bitrate=1444.5kbits/s speed=0.552x    frame=  230 fps= 16 q=49.0 size=    1308kB time=00:00:08.29 bitrate=1292.1kbits/s speed=0.595x    frame=  251 fps= 17 q=49.0 size=    1308kB time=00:00:09.16 bitrate=1168.8kbits/s speed=0.634x    frame=  272 fps= 18 q=49.0 size=    2677kB time=00:00:10.04 bitrate=2183.9kbits/s speed=0.671x    frame=  293 fps= 19 q=49.0 size=    2677kB time=00:00:10.91 bitrate=2008.8kbits/s speed=0.705x    frame=  314 fps= 20 q=49.0 size=    2897kB time=00:00:11.79 bitrate=2012.6kbits/s speed=0.737x    frame=  335 fps= 20 q=49.0 size=    2897kB time=00:00:12.66 bitrate=1873.6kbits/s speed=0.767x    frame=  356 fps= 21 q=49.0 size=    2897kB time=00:00:13.54 bitrate=1752.5kbits/s speed=0.796x    frame=  377 fps= 22 q=49.0 size=    2897kB time=00:00:14.41 bitrate=1646.2kbits/s speed=0.823x    frame=  398 fps= 22 q=49.0 size=    2897kB time=00:00:15.29 bitrate=1552.0kbits/s speed=0.848x    frame=  419 fps= 23 q=49.0 size=    3548kB time=00:00:16.16 bitrate=1797.7kbits/s speed=0.872x    frame=  440 fps= 23 q=49.0 size=    3548kB time=00:00:17.04 bitrate=1705.4kbits/s speed=0.894x    frame=  461 fps= 24 q=49.0 size=    3752kB time=00:00:17.91 bitrate=1715.3kbits/s speed=0.916x    frame=  482 fps= 24 q=49.0 size=    3752kB time=00:00:18.79 bitrate=1635.4kbits/s speed=0.936x    frame=  500 fps= 24 q=49.0 Lsize=    4224kB time=00:00:20.79 bitrate=1664.0kbits/s speed=1.01x    
video:4219kB audio:0kB subtitle:0kB other streams:0kB global headers:0kB muxing overhead: 0.103299%
bench: utime=0.944s
bench: maxrss=1198384kB
